# xmcd
#
# Track frame offsets:
#	150
#	17285
#	31225
#	50170
#	65540
#	81302
#	100845
#	112070
#	128482
#	144547
#
# Disc length: 2184 seconds
#
# Revision: 2
# Processed by: cddbd v1.5.2PL0 Copyright (c) Steve Scherf et al.
# Submitted via: MusicWizard 7.1.1b
#
DISCID=8208860a
DTITLE=Die Komm' Mit Mann!s - Die Fortsetzung ...!
DYEAR=1900
DGENRE=Soul
TTITLE0=Tracks Of My Tears
TTITLE1=Sweet Time Lover
TTITLE2=How Many Tears
TTITLE3=Time's A Good Doctor
TTITLE4=Hypnotized
TTITLE5=The Love Of A Woman
TTITLE6=I'm A Midnight Mover
TTITLE7=Someday
TTITLE8=Stand By Your Love
TTITLE9=Ain't Got Nothing
EXTD=
EXTT0=
EXTT1=
EXTT2=
EXTT3=
EXTT4=
EXTT5=
EXTT6=
EXTT7=
EXTT8=
EXTT9=
PLAYORDER=
